<svg id="Layer_1" data-name="Layer 1" xmlns="http://www.w3.org/2000/svg" viewBox="0 0 400 400"><defs><style>.cls-1{fill:#246d90;}</style></defs><title>magnifying-glass</title><path id="action_search" data-name="action search" class="cls-1" d="M424.53,365.57l-75.4-75.43c-6.64-6.61-18.65-6-30.69.29l-32.9-32.89c42.86-56,38.8-136.39-12.41-187.63a142.84,142.84,0,0,0-202,202c51.25,51.24,131.64,55.27,187.64,12.41l32.9,32.87c-6.27,12.08-6.92,24.06-.3,30.69l75.43,75.43c9.53,9.53,30.21,4.3,46.13-11.65S434.06,375.11,424.53,365.57ZM92.36,250.7a112.81,112.81,0,1,1,159.52,0A112.85,112.85,0,0,1,92.36,250.7Z" transform="translate(-29.29 -28.09)"/></svg>