<?xml version="1.0" encoding="utf-8"?>
<!-- Generator: Adobe Illustrator 19.2.1, SVG Export Plug-In . SVG Version: 6.00 Build 0)  -->
<svg version="1.1" id="Layer_1" xmlns="http://www.w3.org/2000/svg" xmlns:xlink="http://www.w3.org/1999/xlink" x="0px" y="0px"
	 viewBox="0 0 458.6 460.6" style="enable-background:new 0 0 458.6 460.6;" xml:space="preserve">
<style type="text/css">
	.st0{fill:#5D2556;}
</style>
<g>
	<path class="st0" d="M404.5,170.5c-0.6-0.5-1.2-0.7-1.8-0.9V72.2c0-2.8-2.3-5.1-5.2-5.1H269.8c-0.3-0.3-0.6-0.7-1.1-1.1l-31.6-24.3
		c-3.6-2.8-9.6-2.8-13.2,0L192.4,66c-0.5,0.4-0.8,0.8-1.1,1.1H63.8c-2.8,0-5.1,2.3-5.1,5.1v97.2c-0.7,0.2-1.3,0.5-2,1l-19.5,15
		c-3.6,2.8-6.6,8.8-6.6,13.4v221.2c0,4.6,3.7,8.3,8.3,8.3h383.3c4.6,0,8.4-3.8,8.4-8.3V198.9c0-4.6-3-10.6-6.6-13.4L404.5,170.5z
		 M375.2,231.9c0,2.8-2,6.3-4.5,7.6l-135.5,72.9c-2.5,1.3-6.6,1.3-9,0L90.7,239.5c-2.5-1.3-4.5-4.7-4.5-7.6V94.3
		c0-2.8,2.3-5.1,5.1-5.1H370c2.8,0,5.2,2.3,5.2,5.1V231.9z"/>
	<rect x="116.9" y="133.2" class="st0" width="80" height="79.9"/>
	<rect x="220" y="133.2" class="st0" width="135.4" height="14.7"/>
	<rect x="220" y="163.2" class="st0" width="135.4" height="14.7"/>
	<rect x="220" y="193.2" class="st0" width="55.3" height="14.8"/>
</g>
</svg>
