<?xml version="1.0" encoding="utf-8"?>
<!-- Generator: Adobe Illustrator 19.2.1, SVG Export Plug-In . SVG Version: 6.00 Build 0)  -->
<svg version="1.1" id="Layer_1" xmlns="http://www.w3.org/2000/svg" xmlns:xlink="http://www.w3.org/1999/xlink" x="0px" y="0px"
	 viewBox="0 0 458.6 460.6" style="enable-background:new 0 0 458.6 460.6;" xml:space="preserve">
<style type="text/css">
	.st0{fill:#5D2556;}
</style>
<g>
	<path class="st0" d="M418.7,91.5c-15.9,8.5-33.4,14.7-52.1,18.1c-15-14.5-36.3-23.5-59.9-23.5c-45.3,0-82,33.3-82,74.5
		c0,5.8,0.7,11.5,2.1,16.9C158.5,174.4,98,144.8,57.6,99.7c-7,11-11.1,23.8-11.1,37.4c0,25.8,14.5,48.6,36.5,61.9
		c-13.4-0.4-26.1-3.7-37.2-9.3c0,0.3,0,0.6,0,0.9c0,36,28.3,66.1,65.8,73c-6.9,1.7-14.1,2.6-21.7,2.6c-5.3,0-10.4-0.5-15.4-1.3
		c10.5,29.6,40.7,51.1,76.6,51.7c-28.1,20-63.5,31.9-101.9,31.9c-6.6,0-13.2-0.4-19.6-1c36.3,21.1,79.5,33.4,125.8,33.4
		c150.9,0,233.5-113.4,233.5-211.8c0-3.2,0-6.4-0.2-9.6c16-10.5,29.9-23.6,40.9-38.5c-14.7,5.9-30.5,9.9-47.1,11.7
		C399.5,123.5,412.5,108.9,418.7,91.5z"/>
</g>
</svg>
